<?xml version="1.0" encoding="iso-8859-1"?>
<!-- Generator: Adobe Illustrator 21.0.0, SVG Export Plug-In . SVG Version: 6.00 Build 0)  -->
<svg version="1.1" id="Capa_1" xmlns="http://www.w3.org/2000/svg" xmlns:xlink="http://www.w3.org/1999/xlink" x="0px" y="0px"
	 viewBox="0 0 512.047 512.047" style="enable-background:new 0 0 512.047 512.047;" xml:space="preserve">
<g>
	<g transform="translate(2 5)">
		<g>
			<polygon style="fill:#D4E1F4;" points="416.133,225.407 262.533,225.407 157.659,242.473 126,242.473 126,225.407 
				160.133,157.14 156.379,148.607 277.808,147.497 311.6,147.156 322.267,157.14 			"/>
			<path style="fill:#D4E1F4;" d="M499.419,239.487L398.896,360.404c-7.005,1.045-14.08,1.558-21.163,1.536
				c-5.734,0.036-11.463-0.306-17.152-1.024c1.451-0.085,2.816-0.341,4.181-0.512l100.523-120.917
				c2.165-2.531,2.659-6.091,1.266-9.117s-4.42-4.964-7.751-4.963h34.133c3.331,0,6.358,1.938,7.751,4.963
				S501.584,236.955,499.419,239.487z"/>
		</g>
		<g>
			<polygon style="fill:#F4F4F4;" points="382,225.407 262.533,225.407 157.659,242.473 126,242.473 126,225.407 160.133,157.14 
				156.379,148.607 277.808,147.497 288.133,157.14 			"/>
			<path style="fill:#F4F4F4;" d="M465.285,239.487L364.763,360.404c-1.365,0.171-2.731,0.427-4.181,0.512
				c-5.632,0.715-11.305,1.057-16.981,1.024c-55.637,0-61.269-27.563-106.752-33.109c-45.397,5.547-51.029,33.109-106.581,33.109
				c-5.705,0.036-11.407-0.306-17.067-1.024c-41.387-5.035-49.749-28.416-93.013-32.512l44.203-68.864h22.528l104.875-17.067
				h-34.133l104.875-17.067H458.8c3.331,0,6.358,1.938,7.751,4.963S467.451,236.955,465.285,239.487z"/>
		</g>
		<g>
			<path style="fill:#A4C2F7;" d="M296.667,225.407v17.067c-0.028,9.414-7.653,17.039-17.067,17.067H83.333l23.04-30.72
				c1.624-2.134,4.145-3.395,6.827-3.413H296.667z"/>
			<path style="fill:#A4C2F7;" d="M322.267,157.14H134.533c-9.397-0.07-16.997-7.67-17.067-17.067
				c0.028-9.414,7.653-17.039,17.067-17.067h144.299c16.147,0.001,30.91,9.116,38.144,23.552L322.267,157.14z"/>
		</g>
		<g>
			<path style="fill:#E3E7F2;" d="M271.067,225.407v17.067c-0.028,9.414-7.653,17.039-17.067,17.067H83.333l23.04-30.72
				c1.624-2.134,4.145-3.395,6.827-3.413H271.067z"/>
			<path style="fill:#E3E7F2;" d="M296.667,157.14H134.533c-9.397-0.07-16.997-7.67-17.067-17.067
				c0.028-9.414,7.653-17.039,17.067-17.067h118.699c16.147,0.001,30.91,9.116,38.144,23.552L296.667,157.14z"/>
		</g>
		<path style="fill:#A4C2F7;" d="M369.2,191.273H245.467c-9.414-0.028-17.039-7.653-17.067-17.067V157.14h93.867L369.2,191.273z"/>
		<path style="fill:#E3E7F2;" d="M330.8,191.273h-85.333c-9.414-0.028-17.039-7.653-17.067-17.067V157.14h55.467L330.8,191.273z"/>
		<g>
			<path style="fill:#FFFFFF;" d="M138.8,360.916c-41.387-5.035-49.749-28.416-93.013-32.512l44.203-68.864h18.944l23.04-30.72
				c1.624-2.134,4.145-3.395,6.827-3.413h12.8l34.133-68.267h-25.6L126,225.407h-12.8c-2.682,0.018-5.203,1.279-6.827,3.413
				l-23.04,30.72H64.389l-44.203,68.864c43.264,4.096,51.627,27.477,93.013,32.512c5.66,0.718,11.361,1.06,17.067,1.024
				c4.659,0,8.858-0.256,12.86-0.614C141.684,361.189,140.174,361.087,138.8,360.916z"/>
			<path style="fill:#FFFFFF;" d="M143.067,140.073c0.028-9.414,7.653-17.039,17.067-17.067h-25.6
				c-9.414,0.028-17.039,7.653-17.067,17.067c0.07,9.397,7.67,16.997,17.067,17.067h25.6
				C150.737,157.07,143.136,149.47,143.067,140.073z"/>
		</g>
	</g>
	<g>
		<polygon style="fill:#FFFFFF;" points="394.334,359.951 465.254,274.643 494.857,239.034 507.981,249.939 478.379,285.557 
			407.458,370.857 		"/>
		<g>
			<path style="fill:#428DFF;" d="M443.733,304.373c-4.688,0.481-8.13,4.622-7.748,9.318l0.333,1.604
				c0.158,0.555,0.39,1.086,0.691,1.579c0.214,0.498,0.502,0.961,0.853,1.374c0.371,0.436,0.773,0.844,1.203,1.22
				c1.755,1.422,3.984,2.126,6.238,1.971c2.867-0.21,5.429-1.869,6.793-4.4c1.364-2.531,1.341-5.583-0.06-8.093
				c-0.517-0.976-1.215-1.845-2.057-2.56C448.224,304.957,445.994,304.238,443.733,304.373z"/>
			<path style="fill:#428DFF;" d="M503.467,324.273c-23.301-0.547-46.251,5.755-66.005,18.125
				c-3.746,2.065-7.441,4.105-11.332,5.973l3.149-3.789c1.951-2.344,2.503-5.552,1.449-8.414c-1.055-2.862-3.556-4.944-6.562-5.461
				c-3.006-0.518-6.06,0.608-8.011,2.952l-19.627,23.612c-5.567,0.749-11.177,1.128-16.794,1.135
				c-20.413,0.493-40.515-5.078-57.762-16.009c-19.764-12.376-42.727-18.678-66.039-18.125
				c-23.288-0.546-46.224,5.756-65.963,18.125c-17.227,10.926-37.308,16.498-57.702,16.009
				c-20.408,0.492-40.504-5.079-57.745-16.009c-11.792-7.123-24.65-12.309-38.084-15.36l34.611-53.965H281.6
				c14.138,0,25.6-11.462,25.6-25.6v-8.533h25.6v25.6c0,4.713,3.82,8.533,8.533,8.533s8.533-3.821,8.533-8.533v-25.6h17.067v25.6
				c0,4.713,3.821,8.533,8.533,8.533c4.713,0,8.533-3.821,8.533-8.533v-25.6h17.067v25.6c0,4.713,3.821,8.533,8.533,8.533
				c4.713,0,8.533-3.821,8.533-8.533v-25.6h76.8V239l-35.063,42.172c-3.014,3.624-2.519,9.005,1.105,12.019
				c3.624,3.014,9.005,2.519,12.019-1.105l35.063-42.18c4.266-5.088,5.194-12.189,2.379-18.202
				c-2.815-6.013-8.863-9.848-15.503-9.83h-74.027l-89.933-65.408l-4.352-8.695c-8.624-17.387-26.382-28.36-45.79-28.297h-87.825
				l-8.533-17.067H230.4c4.713,0,8.533-3.821,8.533-8.533s-3.821-8.533-8.533-8.533h-93.867c-4.713,0-8.533,3.821-8.533,8.533
				s3.821,8.533,8.533,8.533h28.86l8.533,17.067h-37.393c-14.138,0-25.6,11.462-25.6,25.6s11.462,25.6,25.6,25.6h11.793l-25.6,51.2
				H115.2c-5.369,0.011-10.423,2.538-13.653,6.827l-20.48,27.307H66.389c-2.907-0.001-5.615,1.478-7.185,3.925l-41.506,64.666
				c-2.944-0.171-5.914-0.324-9.165-0.324c-4.713,0-8.533,3.821-8.533,8.533c0,4.713,3.821,8.533,8.533,8.533
				c20.405-0.491,40.498,5.08,57.737,16.009c19.75,12.373,42.698,18.675,65.997,18.125c18.26,0.529,36.382-3.325,52.847-11.238
				l0.119-0.06c4.548-2.193,8.798-4.523,12.996-6.827c17.228-10.924,37.309-16.495,57.702-16.009
				c20.413-0.493,40.515,5.078,57.762,16.009c19.764,12.376,42.727,18.678,66.039,18.125c23.301,0.547,46.251-5.755,66.005-18.125
				c17.238-10.924,37.326-16.494,57.728-16.009c4.713,0,8.533-3.821,8.533-8.533C512,328.094,508.18,324.273,503.467,324.273z
				 M238.933,170.673h82.56l23.467,17.067h-97.493c-4.713,0-8.533-3.821-8.533-8.533V170.673z M128,145.073
				c0-4.713,3.821-8.533,8.533-8.533h144.299c12.176-0.021,23.425,6.495,29.466,17.067H136.533
				C131.821,153.607,128,149.786,128,145.073z M167.407,170.673h54.46v8.533c0,14.138,11.462,25.6,25.6,25.6h120.96l23.467,17.067
				H141.807L167.407,170.673z M115.2,238.94h174.933v8.533c0,4.713-3.821,8.533-8.533,8.533H102.4L115.2,238.94z"/>
			<path style="fill:#428DFF;" d="M503.467,375.473c-23.301-0.547-46.251,5.755-66.005,18.125
				c-17.238,10.924-37.326,16.494-57.728,16.009c-20.413,0.493-40.515-5.078-57.762-16.009
				c-19.764-12.376-42.727-18.678-66.039-18.125c-23.288-0.546-46.224,5.756-65.963,18.125
				c-17.227,10.926-37.308,16.498-57.702,16.009c-20.408,0.492-40.504-5.079-57.745-16.009
				c-19.747-12.371-42.692-18.674-65.988-18.125c-4.713,0-8.533,3.82-8.533,8.533s3.821,8.533,8.533,8.533
				c20.405-0.491,40.498,5.08,57.737,16.009c19.75,12.373,42.698,18.675,65.997,18.125c23.289,0.548,46.226-5.757,65.963-18.133
				c17.229-10.921,37.309-16.489,57.702-16c20.413-0.493,40.515,5.078,57.762,16.009c19.764,12.376,42.727,18.678,66.039,18.125
				c23.301,0.547,46.251-5.755,66.005-18.125c17.238-10.924,37.326-16.494,57.728-16.009c4.713,0,8.533-3.821,8.533-8.533
				S508.18,375.473,503.467,375.473z"/>
		</g>
	</g>
</g>
<g>
</g>
<g>
</g>
<g>
</g>
<g>
</g>
<g>
</g>
<g>
</g>
<g>
</g>
<g>
</g>
<g>
</g>
<g>
</g>
<g>
</g>
<g>
</g>
<g>
</g>
<g>
</g>
<g>
</g>
</svg>
